<svg width="512" height="512" viewBox="0 0 512 512" fill="none" xmlns="http://www.w3.org/2000/svg">
<path d="M21.33 277.33V234.67C21.33 223.353 25.8256 212.5 33.8278 204.498C41.8299 196.496 52.6832 192 64 192H106.67L213.34 106.67V405.33L106.67 320H64C52.6832 320 41.8299 315.504 33.8278 307.502C25.8256 299.5 21.33 288.647 21.33 277.33Z" fill="#003F6C"/>
<path d="M213.34 426.528C208.492 426.531 203.787 424.884 200 421.858L99.18 341.188H64C47.0318 341.169 30.7639 334.42 18.7656 322.422C6.76732 310.424 0.0185286 294.156 0 277.188V234.528C0.0185286 217.56 6.76732 201.292 18.7656 189.293C30.7639 177.295 47.0318 170.546 64 170.528H99.18L200 89.8577C203.138 87.346 206.921 85.7719 210.914 85.3167C214.908 84.8615 218.948 85.5438 222.571 87.285C226.193 89.0262 229.25 91.7553 231.389 95.1581C233.528 98.5608 234.662 102.499 234.66 106.518V405.188C234.66 410.845 232.413 416.27 228.413 420.27C224.412 424.27 218.987 426.518 213.33 426.518L213.34 426.528ZM64 213.188C58.3454 213.196 52.9246 215.445 48.9262 219.444C44.9277 223.442 42.6779 228.863 42.67 234.518V277.188C42.6753 282.844 44.9239 288.267 48.9226 292.268C52.9214 296.269 58.3436 298.52 64 298.528H106.67C111.515 298.525 116.216 300.172 120 303.198L192 360.798V150.908L120 208.508C116.218 211.537 111.516 213.188 106.67 213.188H64Z" fill="#A8DEFD"/>
<path d="M303.25 320.178C299.103 320.177 295.045 318.968 291.575 316.697C288.104 314.427 285.371 311.194 283.709 307.394C282.047 303.594 281.529 299.392 282.219 295.303C282.908 291.213 284.775 287.413 287.59 284.368C294.709 276.583 298.657 266.417 298.657 255.868C298.657 245.319 294.709 235.152 287.59 227.368C285.686 225.311 284.206 222.899 283.234 220.269C282.262 217.64 281.817 214.845 281.925 212.044C282.033 209.243 282.692 206.491 283.864 203.944C285.036 201.398 286.698 199.107 288.755 197.203C290.812 195.299 293.224 193.818 295.853 192.846C298.483 191.874 301.278 191.43 304.079 191.538C306.88 191.646 309.632 192.305 312.179 193.477C314.725 194.649 317.016 196.311 318.92 198.368C333.333 214.036 341.332 234.548 341.332 255.838C341.332 277.127 333.333 297.639 318.92 313.308C316.926 315.476 314.504 317.206 311.807 318.389C309.109 319.571 306.195 320.181 303.25 320.178Z" fill="#A8DEFD"/>
<path d="M363.62 380.558C359.438 380.558 355.349 379.329 351.86 377.024C348.372 374.719 345.637 371.439 343.997 367.593C342.358 363.746 341.885 359.502 342.637 355.389C343.39 351.276 345.335 347.475 348.23 344.458C371.175 320.672 383.996 288.912 383.996 255.863C383.996 222.814 371.175 191.054 348.23 167.268C344.419 163.168 342.372 157.734 342.531 152.139C342.69 146.543 345.043 141.235 349.081 137.358C353.119 133.482 358.519 131.348 364.116 131.417C369.713 131.486 375.059 133.753 379 137.728C409.572 169.457 426.653 211.802 426.653 255.863C426.653 299.924 409.572 342.269 379 373.998C377.012 376.073 374.625 377.724 371.981 378.852C369.338 379.979 366.494 380.559 363.62 380.558Z" fill="#A8DEFD"/>
<path d="M424.1 441.038C419.904 441.036 415.801 439.798 412.305 437.477C408.809 435.157 406.075 431.857 404.444 427.991C402.813 424.124 402.359 419.863 403.137 415.739C403.915 411.616 405.892 407.814 408.82 404.808C447.618 364.933 469.326 311.493 469.326 255.858C469.326 200.222 447.618 146.783 408.82 106.908C405.01 102.83 402.95 97.4217 403.08 91.8427C403.21 86.2637 405.52 80.9575 409.516 77.0615C413.511 73.1655 418.874 70.9895 424.454 71C430.035 71.0105 435.389 73.2067 439.37 77.1177C485.934 124.964 511.989 189.093 511.989 255.858C511.989 322.622 485.934 386.751 439.37 434.598C437.384 436.637 435.01 438.258 432.387 439.364C429.764 440.47 426.946 441.039 424.1 441.038Z" fill="#A8DEFD"/>
</svg>
