<svg width="204" height="156" viewBox="0 0 204 156" fill="none" xmlns="http://www.w3.org/2000/svg">
<path d="M190.922 24.616H13.078C6.378 24.616 0.945007 19.184 0.945007 12.483C0.945007 5.78201 6.378 0.350006 13.078 0.350006H190.922C197.622 0.350006 203.055 5.78201 203.055 12.483C203.055 19.184 197.621 24.616 190.922 24.616Z" fill="#1A1A1A"/>
<path d="M190.922 90.209H13.078C6.378 90.209 0.945007 84.777 0.945007 78.076C0.945007 71.375 6.378 65.943 13.078 65.943H190.922C197.622 65.943 203.055 71.375 203.055 78.076C203.055 84.777 197.621 90.209 190.922 90.209Z" fill="#1A1A1A"/>
<path d="M190.922 155.779H13.078C6.378 155.779 0.945007 150.347 0.945007 143.646C0.945007 136.945 6.378 131.513 13.078 131.513H190.922C197.622 131.513 203.055 136.945 203.055 143.646C203.055 150.347 197.621 155.779 190.922 155.779Z" fill="#1A1A1A"/>
</svg>
