<svg width="411" height="446" viewBox="0 0 411 446" fill="none" xmlns="http://www.w3.org/2000/svg">
<path d="M320.835 46.1899C319.271 46.1899 318.002 47.5804 318.002 49.2885V127.712C318.002 129.42 319.271 130.81 320.835 130.81H359.165C360.727 130.81 361.998 129.42 361.998 127.712V49.2885C361.998 47.5804 360.727 46.1899 359.165 46.1899H320.835ZM359.165 133H320.835C318.168 133 316 130.628 316 127.712V49.2885C316 46.3716 318.168 44 320.835 44H359.165C361.832 44 364 46.3716 364 49.2885V127.712C364 130.628 361.832 133 359.165 133Z" fill="white"/>
<path d="M349.498 118.158C348.609 118.158 347.888 118.984 347.888 120C347.888 121.014 348.609 121.843 349.498 121.843C350.387 121.843 351.112 121.014 351.112 120C351.112 118.984 350.387 118.158 349.498 118.158ZM349.498 124C347.569 124 346 122.205 346 120C346 117.793 347.569 116 349.498 116C351.429 116 353 117.793 353 120C353 122.205 351.429 124 349.498 124Z" fill="white"/>
<path d="M335 57.9987C335 59.104 334.328 60 333.501 60C332.672 60 332 59.104 332 57.9987C332 56.896 332.672 56 333.501 56C334.328 56 335 56.896 335 57.9987Z" fill="white"/>
<path d="M341 57.9987C341 59.104 340.328 60 339.499 60C338.67 60 338 59.104 338 57.9987C338 56.896 338.67 56 339.499 56C340.328 56 341 56.896 341 57.9987Z" fill="white"/>
<path d="M347 57.9987C347 59.104 346.328 60 345.501 60C344.672 60 344 59.104 344 57.9987C344 56.896 344.672 56 345.501 56C346.328 56 347 56.896 347 57.9987Z" fill="white"/>
<path d="M350.011 68H329.989C329.443 68 329 67.552 329 67C329 66.448 329.443 66 329.989 66H350.011C350.559 66 351 66.448 351 67C351 67.552 350.559 68 350.011 68Z" fill="white"/>
<path d="M350.011 77H329.989C329.443 77 329 76.328 329 75.5C329 74.672 329.443 74 329.989 74H350.011C350.559 74 351 74.672 351 75.5C351 76.328 350.559 77 350.011 77Z" fill="white"/>
<path d="M350.011 85H329.989C329.443 85 329 84.554 329 84C329 83.448 329.443 83 329.989 83H350.011C350.559 83 351 83.448 351 84C351 84.554 350.559 85 350.011 85Z" fill="white"/>
<path d="M350.011 94H329.989C329.443 94 329 93.554 329 93C329 92.448 329.443 92 329.989 92H350.011C350.559 92 351 92.448 351 93C351 93.554 350.559 94 350.011 94Z" fill="white"/>
<path d="M350.011 102H329.989C329.443 102 329 101.554 329 101C329 100.448 329.443 100 329.989 100H350.011C350.559 100 351 100.448 351 101C351 101.554 350.559 102 350.011 102Z" fill="white"/>
<path d="M350.011 111H329.989C329.443 111 329 110.552 329 110C329 109.446 329.443 109 329.989 109H350.011C350.559 109 351 109.446 351 110C351 110.552 350.559 111 350.011 111Z" fill="white"/>
<path d="M315.514 125H305.572C303.602 125 302 123.262 302 121.124V59.8736C302 57.7383 303.602 56 305.572 56H315.995C316.55 56 317 56.4864 317 57.0905C317 57.6925 316.55 58.1811 315.995 58.1811H305.572C304.712 58.1811 304.01 58.9401 304.01 59.8736V121.124C304.01 122.058 304.712 122.819 305.572 122.819H315.514C316.069 122.819 316.52 123.305 316.52 123.909C316.52 124.511 316.069 125 315.514 125Z" fill="white"/>
<path d="M311 67.501C311 68.328 310.107 69 309.001 69C307.896 69 307 68.328 307 67.501C307 66.672 307.896 66 309.001 66C310.107 66 311 66.672 311 67.501Z" fill="white"/>
<path d="M374.43 125H364.487C363.931 125 363.482 124.511 363.482 123.909C363.482 123.305 363.931 122.819 364.487 122.819H374.43C375.291 122.819 375.99 122.058 375.99 121.124V59.8736C375.99 58.9401 375.291 58.1811 374.43 58.1811H364.005C363.45 58.1811 363 57.6925 363 57.0905C363 56.4864 363.45 56 364.005 56H374.43C376.4 56 378 57.7383 378 59.8736V121.124C378 123.262 376.4 125 374.43 125Z" fill="white"/>
<path d="M369 67.501C369 68.328 369.67 69 370.499 69C371.328 69 372 68.328 372 67.501C372 66.672 371.328 66 370.499 66C369.67 66 369 66.672 369 67.501Z" fill="white"/>
<path d="M236 307C203.037 307 168 301.544 168 291.432V255H170.009V291.432C170.009 297.766 197.113 304.825 236 304.825C274.889 304.825 301.991 297.766 301.991 291.432V255H304V291.432C304 301.544 268.965 307 236 307Z" fill="white"/>
<path d="M236 270C203.037 270 168 264.531 168 254.391C168 251.823 170.218 249.465 174.593 247.382L175.401 249.38C171.924 251.035 170.009 252.814 170.009 254.391C170.009 260.742 197.113 267.819 236 267.819C274.889 267.819 301.991 260.742 301.991 254.391C301.991 252.69 299.794 250.782 295.809 249.017L296.567 247C301.5 249.181 304 251.668 304 254.391C304 264.531 268.965 270 236 270" fill="white"/>
<path d="M236 258C203.037 258 168 252.543 168 242.43V206H170.009V242.43C170.009 248.764 197.113 255.825 236 255.825C274.889 255.825 301.991 248.764 301.991 242.43V206H304V242.43C304 252.543 268.965 258 236 258Z" fill="white"/>
<path d="M236 221C203.037 221 168 215.67 168 205.793C168 203.745 169.481 201.836 172.397 200.113L173.377 201.967C171.175 203.267 170.009 204.591 170.009 205.793C170.009 211.98 197.113 218.876 236 218.876C274.889 218.876 301.991 211.98 301.991 205.793C301.991 204.559 300.767 203.202 298.448 201.867L299.41 200C302.457 201.755 304 203.703 304 205.793C304 215.67 268.965 221 236 221Z" fill="white"/>
<path d="M222.001 237.37C220.839 237.37 219.895 238.55 219.895 240C219.895 241.45 220.839 242.63 222.001 242.63C223.161 242.63 224.105 241.45 224.105 240C224.105 238.55 223.161 237.37 222.001 237.37ZM222.001 245C219.795 245 218 242.758 218 240C218 237.242 219.795 235 222.001 235C224.207 235 226 237.242 226 240C226 242.758 224.207 245 222.001 245Z" fill="white"/>
<path d="M235.999 237.37C234.839 237.37 233.895 238.55 233.895 240C233.895 241.45 234.839 242.63 235.999 242.63C237.161 242.63 238.105 241.45 238.105 240C238.105 238.55 237.161 237.37 235.999 237.37ZM235.999 245C233.793 245 232 242.758 232 240C232 237.242 233.793 235 235.999 235C238.205 235 240 237.242 240 240C240 242.758 238.205 245 235.999 245Z" fill="white"/>
<path d="M235.999 285.133C234.839 285.133 233.895 286.195 233.895 287.5C233.895 288.805 234.839 289.867 235.999 289.867C237.161 289.867 238.105 288.805 238.105 287.5C238.105 286.195 237.161 285.133 235.999 285.133ZM235.999 292C233.793 292 232 289.982 232 287.5C232 285.017 233.793 283 235.999 283C238.205 283 240 285.017 240 287.5C240 289.982 238.205 292 235.999 292Z" fill="white"/>
<path d="M249.5 285.133C248.195 285.133 247.133 286.195 247.133 287.5C247.133 288.805 248.195 289.867 249.5 289.867C250.805 289.867 251.867 288.805 251.867 287.5C251.867 286.195 250.805 285.133 249.5 285.133ZM249.5 292C247.018 292 245 289.982 245 287.5C245 285.017 247.018 283 249.5 283C251.982 283 254 285.017 254 287.5C254 289.982 251.982 292 249.5 292Z" fill="white"/>
<path d="M236 211C203.037 211 168 205.44 168 195.133V158H170.009V195.133C170.009 201.589 197.113 208.783 236 208.783C274.889 208.783 301.991 201.589 301.991 195.133V158H304V195.133C304 205.44 268.965 211 236 211Z" fill="white"/>
<path d="M236 174C203.037 174 168 168.418 168 158.07C168 150.807 185.277 146.843 195.576 145.129L195.873 147.328C176.783 150.511 170.009 155.103 170.009 158.07C170.009 164.551 197.113 171.774 236 171.774C274.889 171.774 301.991 164.551 301.991 158.07C301.991 155.047 295.016 150.384 275.361 147.204L275.653 145C286.238 146.716 304 150.691 304 158.07C304 168.418 268.965 174 236 174Z" fill="white"/>
<path d="M222.001 188.369C220.839 188.369 219.895 189.549 219.895 190.999C219.895 192.451 220.839 193.631 222.001 193.631C223.161 193.631 224.105 192.451 224.105 190.999C224.105 189.549 223.161 188.369 222.001 188.369ZM222.001 196C219.795 196 218 193.756 218 190.999C218 188.241 219.795 186 222.001 186C224.207 186 226 188.241 226 190.999C226 193.756 224.207 196 222.001 196Z" fill="white"/>
<path d="M249.5 188.369C248.195 188.369 247.133 189.549 247.133 190.999C247.133 192.451 248.195 193.631 249.5 193.631C250.805 193.631 251.867 192.451 251.867 190.999C251.867 189.549 250.805 188.369 249.5 188.369ZM249.5 196C247.018 196 245 193.756 245 190.999C245 188.241 247.018 186 249.5 186C251.982 186 254 188.241 254 190.999C254 193.756 251.982 196 249.5 196Z" fill="white"/>
<path d="M236 167C211.65 167 187 163.134 187 155.745C187 153.232 189.603 151.131 194.96 149.319L195.549 151.468C190.738 153.095 189.024 154.743 189.024 155.745C189.024 159.508 206.895 164.755 236 164.755C265.104 164.755 282.976 159.508 282.976 155.745C282.976 154.656 281.013 152.878 275.508 151.16L276.056 149C282.075 150.875 285 153.084 285 155.745C285 163.134 260.35 167 236 167Z" fill="white"/>
<path d="M235.156 167C205.152 167 195.968 162.682 195.592 162.499L195 162.21V144H197.034V160.78C199.476 161.685 209.834 164.846 235.156 164.846C260.742 164.846 272.251 161.644 274.966 160.748V144H277V162.257L276.351 162.524C275.908 162.708 265.127 167 235.156 167" fill="white"/>
<path d="M236 136.147C211.858 136.147 197.034 140.429 197.034 143.501C197.034 146.571 211.858 150.853 236 150.853C260.142 150.853 274.966 146.571 274.966 143.501C274.966 140.429 260.142 136.147 236 136.147ZM236 153C219.521 153 195 150.469 195 143.501C195 136.531 219.521 134 236 134C252.481 134 277 136.531 277 143.501C277 150.469 252.481 153 236 153Z" fill="white"/>
<path d="M222.002 282.212C219.278 282.212 217.065 284.585 217.065 287.5C217.065 290.415 219.278 292.788 222.002 292.788C224.722 292.788 226.935 290.415 226.935 287.5C226.935 284.585 224.722 282.212 222.002 282.212ZM222.002 295C218.141 295 215 291.634 215 287.5C215 283.367 218.141 280 222.002 280C225.861 280 229 283.367 229 287.5C229 291.634 225.861 295 222.002 295Z" fill="white"/>
<path d="M250 235.065C247.279 235.065 245.064 237.28 245.064 240.001C245.064 242.72 247.279 244.935 250 244.935C252.721 244.935 254.936 242.72 254.936 240.001C254.936 237.28 252.721 235.065 250 235.065ZM250 247C246.142 247 243 243.86 243 240.001C243 236.142 246.142 233 250 233C253.858 233 257 236.142 257 240.001C257 243.86 253.858 247 250 247Z" fill="white"/>
<path d="M236 186.212C233.278 186.212 231.065 188.584 231.065 191.5C231.065 194.416 233.278 196.788 236 196.788C238.722 196.788 240.935 194.416 240.935 191.5C240.935 188.584 238.722 186.212 236 186.212ZM236 199C232.141 199 229 195.637 229 191.5C229 187.365 232.141 184 236 184C239.859 184 243 187.365 243 191.5C243 195.637 239.859 199 236 199Z" fill="white"/>
<path d="M334.985 295C334.424 295 333.969 294.483 333.969 293.847V287.355C333.969 282.365 330.395 278.306 326.001 278.306C321.607 278.306 318.031 282.365 318.031 287.355V293.847C318.031 294.483 317.576 295 317.015 295C316.453 295 316 294.483 316 293.847V287.355C316 281.094 320.486 276 326.001 276C331.514 276 336 281.094 336 287.355V293.847C336 294.483 335.547 295 334.985 295Z" fill="white"/>
<path d="M317.067 295.177C315.391 295.177 314.027 296.642 314.027 298.442V313.558C314.027 315.358 315.391 316.823 317.067 316.823H333.933C335.609 316.823 336.973 315.358 336.973 313.558V298.442C336.973 296.642 335.609 295.177 333.933 295.177H317.067ZM333.933 319H317.067C314.272 319 312 316.56 312 313.558V298.442C312 295.442 314.272 293 317.067 293H333.933C336.728 293 339 295.442 339 298.442V313.558C339 316.56 336.728 319 333.933 319Z" fill="white"/>
<path d="M325.5 304.184C324.775 304.184 324.183 304.773 324.183 305.499C324.183 306.224 324.775 306.816 325.5 306.816C326.225 306.816 326.817 306.224 326.817 305.499C326.817 304.773 326.225 304.184 325.5 304.184ZM325.5 309C323.57 309 322 307.429 322 305.499C322 303.568 323.57 302 325.5 302C327.43 302 329 303.568 329 305.499C329 307.429 327.43 309 325.5 309Z" fill="white"/>
<path d="M96.0604 244H86.0055C85.4505 244 85 243.552 85 243C85 242.446 85.4505 242 86.0055 242H96.0604C96.6154 242 97.0659 242.446 97.0659 243C97.0659 243.552 96.6154 244 96.0604 244ZM116.17 244H106.115C105.56 244 105.11 243.552 105.11 243C105.11 242.446 105.56 242 106.115 242H116.17C116.725 242 117.176 242.446 117.176 243C117.176 243.552 116.725 244 116.17 244ZM135.995 244H126.225C125.67 244 125.22 243.552 125.22 243C125.22 242.446 125.67 242 126.225 242H135.995C136.552 242 137 242.446 137 243C137 243.552 136.552 244 135.995 244Z" fill="white"/>
<path d="M274.975 79C274.77 79 274.567 78.9374 274.389 78.8058L266.439 72.963C265.974 72.6221 265.861 71.9489 266.185 71.4613C266.513 70.9672 267.152 70.8571 267.611 71.1937L275.561 77.0365C276.026 77.3775 276.139 78.0506 275.815 78.5383C275.614 78.8403 275.297 79 274.975 79Z" fill="white"/>
<path d="M262 66C261.448 66 261 65.5233 261 64.936V56.064C261 55.4767 261.448 55 262 55C262.554 55 263 55.4767 263 56.064V64.936C263 65.5233 262.554 66 262 66Z" fill="white"/>
<path d="M250.025 79C249.703 79 249.384 78.8403 249.185 78.5383C248.861 78.0506 248.974 77.3775 249.439 77.0365L257.389 71.1937C257.846 70.8571 258.488 70.9672 258.816 71.4613C259.14 71.9489 259.025 72.6221 258.562 72.963L250.611 78.8058C250.433 78.9374 250.228 79 250.025 79Z" fill="white"/>
<path d="M109.083 131.204C108.518 131.204 108.055 131.698 108.055 132.306V160.694C108.055 161.3 108.518 161.796 109.083 161.796H134.917C135.485 161.796 135.945 161.3 135.945 160.694V132.306C135.945 131.698 135.485 131.204 134.917 131.204H109.083ZM134.917 164H109.083C107.383 164 106 162.517 106 160.694V132.306C106 130.483 107.383 129 109.083 129H134.917C136.619 129 138 130.483 138 132.306V160.694C138 162.517 136.619 164 134.917 164Z" fill="white"/>
<path d="M121.999 137.249C120.369 137.249 119.045 138.706 119.045 140.499C119.045 142.294 120.369 143.751 121.999 143.751C123.631 143.751 124.955 142.294 124.955 140.499C124.955 138.706 123.631 137.249 121.999 137.249ZM121.999 146C119.241 146 117 143.533 117 140.499C117 137.467 119.241 135 121.999 135C124.757 135 127 137.467 127 140.499C127 143.533 124.757 146 121.999 146Z" fill="white"/>
<path d="M132.002 153H110.998C110.447 153 110 152.328 110 151.5C110 150.669 110.447 150 110.998 150H132.002C132.553 150 133 150.669 133 151.5C133 152.328 132.553 153 132.002 153Z" fill="white"/>
<path d="M129.984 158H113.016C112.455 158 112 157.552 112 157C112 156.446 112.455 156 113.016 156H129.984C130.545 156 131 156.446 131 157C131 157.552 130.545 158 129.984 158Z" fill="white"/>
<path d="M103.021 123.213C101.36 123.213 100.008 124.702 100.008 126.532V166.468C100.008 168.298 101.36 169.787 103.021 169.787H139.979C141.642 169.787 142.992 168.298 142.992 166.468V126.532C142.992 124.702 141.642 123.213 139.979 123.213H103.021ZM139.979 172H103.021C100.251 172 98 169.519 98 166.468V126.532C98 123.481 100.251 121 103.021 121H139.979C142.749 121 145 123.481 145 126.532V166.468C145 169.519 142.749 172 139.979 172Z" fill="white"/>
<path d="M102 123C101.448 123 101 122.504 101 121.894V115.106C101 114.496 101.448 114 102 114C102.552 114 103 114.496 103 115.106V121.894C103 122.504 102.552 123 102 123Z" fill="white"/>
<path d="M109 123C108.446 123 108 122.504 108 121.894V115.106C108 114.496 108.446 114 109 114C109.552 114 110 114.496 110 115.106V121.894C110 122.504 109.552 123 109 123Z" fill="white"/>
<path d="M115 123C114.446 123 114 122.504 114 121.894V115.106C114 114.496 114.446 114 115 114C115.552 114 116 114.496 116 115.106V121.894C116 122.504 115.552 123 115 123Z" fill="white"/>
<path d="M122 123C121.448 123 121 122.504 121 121.894V115.106C121 114.496 121.448 114 122 114C122.554 114 123 114.496 123 115.106V121.894C123 122.504 122.554 123 122 123Z" fill="white"/>
<path d="M128 123C127.448 123 127 122.504 127 121.894V115.106C127 114.496 127.448 114 128 114C128.552 114 129 114.496 129 115.106V121.894C129 122.504 128.552 123 128 123Z" fill="white"/>
<path d="M134 123C133.446 123 133 122.504 133 121.894V115.106C133 114.496 133.446 114 134 114C134.552 114 135 114.496 135 115.106V121.894C135 122.504 134.552 123 134 123Z" fill="white"/>
<path d="M141 123C140.446 123 140 122.504 140 121.894V115.106C140 114.496 140.446 114 141 114C141.552 114 142 114.496 142 115.106V121.894C142 122.504 141.552 123 141 123Z" fill="white"/>
<path d="M151.016 126H144.984C144.439 126 144 125.552 144 125C144 124.446 144.439 124 144.984 124H151.016C151.559 124 152 124.446 152 125C152 125.552 151.559 126 151.016 126Z" fill="white"/>
<path d="M151.016 133H144.984C144.439 133 144 132.552 144 132C144 131.446 144.439 131 144.984 131H151.016C151.559 131 152 131.446 152 132C152 132.552 151.559 133 151.016 133Z" fill="white"/>
<path d="M151.016 140H144.984C144.439 140 144 139.554 144 139C144 138.448 144.439 138 144.984 138H151.016C151.559 138 152 138.448 152 139C152 139.554 151.559 140 151.016 140Z" fill="white"/>
<path d="M151.016 147H144.984C144.439 147 144 146.552 144 146C144 145.448 144.439 145 144.984 145H151.016C151.559 145 152 145.448 152 146C152 146.552 151.559 147 151.016 147Z" fill="white"/>
<path d="M151.016 154H144.984C144.439 154 144 153.552 144 153C144 152.446 144.439 152 144.984 152H151.016C151.559 152 152 152.446 152 153C152 153.552 151.559 154 151.016 154Z" fill="white"/>
<path d="M151.016 161H144.984C144.439 161 144 160.552 144 160C144 159.446 144.439 159 144.984 159H151.016C151.559 159 152 159.446 152 160C152 160.552 151.559 161 151.016 161Z" fill="white"/>
<path d="M151.016 168H144.984C144.439 168 144 167.554 144 167C144 166.448 144.439 166 144.984 166H151.016C151.559 166 152 166.448 152 167C152 167.554 151.559 168 151.016 168Z" fill="white"/>
<path d="M142 179C141.448 179 141 178.504 141 177.893V171.107C141 170.494 141.448 170 142 170C142.554 170 143 170.494 143 171.107V177.893C143 178.504 142.554 179 142 179Z" fill="white"/>
<path d="M135 179C134.446 179 134 178.504 134 177.893V171.107C134 170.494 134.446 170 135 170C135.552 170 136 170.494 136 171.107V177.893C136 178.504 135.552 179 135 179Z" fill="white"/>
<path d="M129 179C128.446 179 128 178.504 128 177.893V171.107C128 170.494 128.446 170 129 170C129.552 170 130 170.494 130 171.107V177.893C130 178.504 129.552 179 129 179Z" fill="white"/>
<path d="M123 179C122.448 179 122 178.504 122 177.893V171.107C122 170.494 122.448 170 123 170C123.552 170 124 170.494 124 171.107V177.893C124 178.504 123.552 179 123 179Z" fill="white"/>
<path d="M116 179C115.448 179 115 178.504 115 177.893V171.107C115 170.494 115.448 170 116 170C116.554 170 117 170.494 117 171.107V177.893C117 178.504 116.554 179 116 179Z" fill="white"/>
<path d="M110 179C109.448 179 109 178.504 109 177.893V171.107C109 170.494 109.448 170 110 170C110.554 170 111 170.494 111 171.107V177.893C111 178.504 110.554 179 110 179Z" fill="white"/>
<path d="M103 179C102.446 179 102 178.504 102 177.893V171.107C102 170.494 102.446 170 103 170C103.552 170 104 170.494 104 171.107V177.893C104 178.504 103.552 179 103 179Z" fill="white"/>
<path d="M99.0162 168H92.9838C92.4388 168 92 167.554 92 167C92 166.448 92.4388 166 92.9838 166H99.0162C99.5593 166 100 166.448 100 167C100 167.554 99.5593 168 99.0162 168Z" fill="white"/>
<path d="M99.0162 161H92.9838C92.4388 161 92 160.552 92 160C92 159.446 92.4388 159 92.9838 159H99.0162C99.5593 159 100 159.446 100 160C100 160.552 99.5593 161 99.0162 161Z" fill="white"/>
<path d="M99.0162 154H92.9838C92.4388 154 92 153.552 92 153C92 152.446 92.4388 152 92.9838 152H99.0162C99.5593 152 100 152.446 100 153C100 153.552 99.5593 154 99.0162 154Z" fill="white"/>
<path d="M99.0162 147H92.9838C92.4388 147 92 146.552 92 146C92 145.448 92.4388 145 92.9838 145H99.0162C99.5593 145 100 145.448 100 146C100 146.552 99.5593 147 99.0162 147Z" fill="white"/>
<path d="M99.0162 140H92.9838C92.4388 140 92 139.554 92 139C92 138.448 92.4388 138 92.9838 138H99.0162C99.5593 138 100 138.448 100 139C100 139.554 99.5593 140 99.0162 140Z" fill="white"/>
<path d="M99.0162 133H92.9838C92.4388 133 92 132.552 92 132C92 131.446 92.4388 131 92.9838 131H99.0162C99.5593 131 100 131.446 100 132C100 132.552 99.5593 133 99.0162 133Z" fill="white"/>
<path d="M99.0162 126H92.9838C92.4388 126 92 125.552 92 125C92 124.446 92.4388 124 92.9838 124H99.0162C99.5593 124 100 124.446 100 125C100 125.552 99.5593 126 99.0162 126Z" fill="white"/>
<path d="M104.992 234H56.0082C55.4517 234 55 233.554 55 233C55 232.448 55.4517 232 56.0082 232H104.992C105.55 232 106 232.448 106 233C106 233.554 105.55 234 104.992 234Z" fill="white"/>
<path d="M268.992 95H220.008C219.45 95 219 94.552 219 94C219 93.446 219.45 93 220.008 93H268.992C269.548 93 270 93.446 270 94C270 94.552 269.548 95 268.992 95Z" fill="white"/>
<path d="M279.988 106H258.012C257.451 106 257 105.554 257 105C257 104.448 257.451 104 258.012 104H279.988C280.549 104 281 104.448 281 105C281 105.554 280.549 106 279.988 106Z" fill="white"/>
<path d="M142.339 344.17C141.446 344.17 140.72 344.916 140.72 345.834C140.72 346.749 141.446 347.497 142.339 347.497C143.231 347.497 143.959 346.749 143.959 345.834C143.959 344.916 143.231 344.17 142.339 344.17ZM142.339 349.592C140.32 349.592 138.68 347.905 138.68 345.834C138.68 343.759 140.32 342.075 142.339 342.075C144.357 342.075 145.999 343.759 145.999 345.834C145.999 347.905 144.357 349.592 142.339 349.592ZM83.6229 340.095C82.862 340.095 82.2092 340.657 82.0725 341.427C82.0542 341.522 82.0399 341.62 82.0399 341.723V351.279C82.0399 352.176 82.7518 352.905 83.6229 352.905H149.377C150.248 352.905 150.96 352.176 150.96 351.279V341.723C150.96 341.62 150.946 341.522 150.93 341.425C150.858 341.038 150.648 340.688 150.334 340.439C150.134 340.283 149.806 340.095 149.377 340.095H83.6229ZM149.377 355H83.6229C81.6258 355 80 353.33 80 351.279V341.723C80 341.492 80.0265 341.268 80.0632 341.049C80.3814 339.282 81.8788 338 83.6229 338H149.377C150.167 338 150.929 338.268 151.574 338.775C152.29 339.343 152.774 340.149 152.935 341.046C152.937 341.046 152.937 341.049 152.937 341.049C152.973 341.268 153 341.492 153 341.723V351.279C153 353.33 151.374 355 149.377 355" fill="white"/>
<path d="M81.1159 342C80.7726 342 80.4229 341.832 80.2212 341.547C80.0217 341.263 79.9402 340.895 80.0475 340.563L82.9072 331.753C83.0939 331.18 83.6903 330.863 84.2631 331.057C84.8252 331.248 85.132 331.866 84.9453 332.44L82.1585 341.023C82.1027 341.574 81.6694 342 81.1159 342" fill="white"/>
<path d="M151.832 342C151.324 342 150.856 341.687 150.711 341.206L148.044 332.395C147.869 331.813 148.228 331.209 148.848 331.043C149.473 330.875 150.114 331.218 150.289 331.796L152.956 340.609C153.131 341.188 152.769 341.794 152.152 341.961C152.044 341.987 151.937 342 151.832 342Z" fill="white"/>
<path d="M142 344.23C141.023 344.23 140.23 345.023 140.23 346.001C140.23 346.974 141.023 347.77 142 347.77C142.974 347.77 143.77 346.974 143.77 346.001C143.77 345.023 142.974 344.23 142 344.23ZM142 350C139.793 350 138 348.205 138 346.001C138 343.792 139.793 342 142 342C144.205 342 146 343.792 146 346.001C146 348.205 144.205 350 142 350Z" fill="white"/>
<path d="M142.339 321.531C141.446 321.531 140.72 322.321 140.72 323.293C140.72 324.262 141.446 325.054 142.339 325.054C143.231 325.054 143.959 324.262 143.959 323.293C143.959 322.321 143.231 321.531 142.339 321.531ZM142.339 327.272C140.32 327.272 138.68 325.487 138.68 323.293C138.68 321.099 140.32 319.313 142.339 319.313C144.357 319.313 145.999 321.099 145.999 323.293C145.999 325.487 144.357 327.272 142.339 327.272ZM83.6229 317.218C82.862 317.218 82.2092 317.811 82.0725 318.627C82.0542 318.727 82.0399 318.832 82.0399 318.94V329.058C82.0399 330.008 82.7518 330.782 83.6229 330.782H149.377C150.248 330.782 150.96 330.008 150.96 329.058V318.94C150.96 318.832 150.946 318.727 150.93 318.626C150.858 318.215 150.646 317.844 150.334 317.582C150.136 317.416 149.808 317.218 149.377 317.218H83.6229ZM149.377 333H83.6229C81.6258 333 80 331.232 80 329.058V318.94C80 318.698 80.0265 318.458 80.0632 318.228C80.3814 316.358 81.8788 315 83.6229 315H149.377C150.169 315 150.929 315.284 151.574 315.821C152.29 316.42 152.774 317.274 152.935 318.226C152.937 318.226 152.937 318.228 152.937 318.228C152.973 318.458 153 318.698 153 318.94V329.058C153 331.232 151.374 333 149.377 333" fill="white"/>
<path d="M151.978 320C151.533 320 151.123 319.684 150.997 319.199L143.722 291.456C143.532 290.723 142.904 290.208 142.198 290.208H92.0078C91.3223 290.208 90.7185 290.68 90.5023 291.385L82.0525 319.015C81.9995 319.569 81.5874 320 81.0611 320C80.7347 320 80.4021 319.83 80.2104 319.543C80.0206 319.258 79.9432 318.888 80.0452 318.549L88.5663 290.69C89.0579 289.082 90.4411 288 92.0078 288H142.198C143.81 288 145.244 289.175 145.685 290.85L152.961 318.596C153.114 319.181 152.798 319.792 152.258 319.96C152.164 319.989 152.07 320 151.978 320" fill="white"/>
<path d="M142 321.23C141.023 321.23 140.23 322.023 140.23 323C140.23 323.974 141.023 324.77 142 324.77C142.974 324.77 143.77 323.974 143.77 323C143.77 322.023 142.974 321.23 142 321.23ZM142 327C139.793 327 138 325.206 138 323C138 320.795 139.793 319 142 319C144.205 319 146 320.795 146 323C146 325.206 144.205 327 142 327Z" fill="white"/>
<path d="M118.502 299.027C110.89 299.027 106.031 301.351 106.031 302.954C106.031 304.554 110.89 306.881 118.502 306.881C126.114 306.881 130.969 304.554 130.969 302.954C130.969 301.351 126.114 299.027 118.502 299.027ZM118.502 309C111.295 309 104 306.923 104 302.954C104 295.015 133 295.015 133 302.954C133 306.923 125.707 309 118.502 309Z" fill="white"/>
<path d="M157.5 100.209C155.582 100.209 154.025 101.91 154.025 104C154.025 106.09 155.582 107.791 157.5 107.791C159.416 107.791 160.975 106.09 160.975 104C160.975 101.91 159.416 100.209 157.5 100.209ZM157.5 110C154.469 110 152 107.307 152 104C152 100.693 154.469 98 157.5 98C160.532 98 163 100.693 163 104C163 107.307 160.532 110 157.5 110Z" fill="#2EFF7B"/>
<path d="M351.499 282.209C349.585 282.209 348.025 283.909 348.025 285.999C348.025 288.091 349.585 289.791 351.499 289.791C353.415 289.791 354.975 288.091 354.975 285.999C354.975 283.909 353.415 282.209 351.499 282.209ZM351.499 292C348.467 292 346 289.306 346 285.999C346 282.691 348.467 280 351.499 280C354.531 280 357 282.691 357 285.999C357 289.306 354.531 292 351.499 292Z" fill="#2EFF7B"/>
<path d="M326 338.126H325.998C325.736 338.126 325.488 338.236 325.299 338.438L321.274 342.747C320.885 343.162 320.885 343.838 321.274 344.252L325.299 348.562C325.488 348.764 325.736 348.874 325.998 348.874H326C326.266 348.874 326.514 348.764 326.703 348.562L330.726 344.252C331.115 343.838 331.115 343.162 330.726 342.747L326.703 338.438C326.514 338.236 326.266 338.126 326 338.126ZM326 351C325.998 351 325.998 351 325.998 351C325.202 351 324.456 350.668 323.896 350.064L319.871 345.755C318.71 344.512 318.71 342.488 319.871 341.244L323.896 336.935C324.456 336.333 325.202 336 325.998 336C325.998 336 325.998 336 326 336C326.796 336 327.544 336.333 328.106 336.935L332.129 341.244C333.29 342.488 333.29 344.512 332.129 345.755L328.106 350.064C327.544 350.668 326.796 351 326 351Z" fill="#2EFF7B"/>
<path d="M343.501 338.126C343.227 338.126 342.955 338.23 342.748 338.438L338.436 342.748C338.022 343.162 338.022 343.839 338.436 344.253L342.748 348.564C343.161 348.978 343.835 348.982 344.254 348.564L348.564 344.253C348.978 343.839 348.978 343.162 348.564 342.748L344.254 338.438C344.045 338.23 343.773 338.126 343.501 338.126ZM343.499 351C342.682 351 341.868 350.69 341.245 350.066L336.933 345.757C335.689 344.513 335.689 342.489 336.933 341.245L341.245 336.935C342.489 335.686 344.511 335.691 345.757 336.935L350.067 341.245C351.311 342.489 351.311 344.513 350.067 345.757L345.757 350.066C345.134 350.69 344.318 351 343.499 351Z" fill="#2EFF7B"/>
<path d="M360.999 338.123C360.745 338.123 360.491 338.228 360.297 338.435L356.272 342.748C355.887 343.161 355.887 343.838 356.272 344.251L360.297 348.564C360.686 348.98 361.313 348.98 361.7 348.564L365.726 344.251C366.113 343.837 366.113 343.162 365.726 342.748L361.7 338.435C361.507 338.228 361.253 338.123 360.999 338.123ZM360.999 351C360.237 351 359.473 350.688 358.894 350.067L354.869 345.755C353.71 344.51 353.71 342.489 354.869 341.244L358.894 336.93C360.053 335.69 361.944 335.69 363.103 336.93L367.129 341.244C368.29 342.489 368.29 344.51 367.129 345.755L363.103 350.067C362.523 350.688 361.761 351 360.999 351Z" fill="#2EFF7B"/>
<path d="M126.023 388C125.83 388 125.635 387.933 125.465 387.8L119.418 383.013C118.976 382.662 118.866 381.973 119.177 381.471C119.487 380.968 120.095 380.854 120.534 381.197L126.583 385.984C127.024 386.336 127.133 387.024 126.825 387.526C126.634 387.834 126.331 388 126.023 388" fill="white"/>
<path d="M116 377C115.446 377 115 376.535 115 375.961V369.039C115 368.466 115.446 368 116 368C116.552 368 117 368.466 117 369.039V375.961C117 376.535 116.552 377 116 377Z" fill="white"/>
<path d="M105.976 388C105.669 388 105.365 387.834 105.176 387.526C104.868 387.024 104.975 386.336 105.418 385.984L111.465 381.197C111.904 380.854 112.513 380.968 112.825 381.471C113.133 381.973 113.024 382.662 112.583 383.013L106.534 387.8C106.364 387.933 106.171 388 105.976 388" fill="white"/>
<path d="M58.501 187.21C56.583 187.21 55.0254 188.909 55.0254 191C55.0254 193.091 56.583 194.79 58.501 194.79C60.4171 194.79 61.9746 193.091 61.9746 191C61.9746 188.909 60.4171 187.21 58.501 187.21ZM58.501 197C55.467 197 53 194.308 53 191C53 187.692 55.467 185 58.501 185C61.5331 185 64 187.692 64 191C64 194.308 61.5331 197 58.501 197Z" fill="#2EFF7B"/>
<path d="M210.212 329H200.019C199.457 329 199 328.552 199 328C199 327.448 199.457 327 200.019 327H210.212C210.776 327 211.231 327.448 211.231 328C211.231 328.552 210.776 329 210.212 329ZM230.596 329H220.404C219.841 329 219.385 328.552 219.385 328C219.385 327.448 219.841 327 220.404 327H230.596C231.161 327 231.615 327.448 231.615 328C231.615 328.552 231.161 329 230.596 329ZM250.981 329H240.788C240.226 329 239.769 328.552 239.769 328C239.769 327.448 240.226 327 240.788 327H250.981C251.545 327 252 327.448 252 328C252 328.552 251.545 329 250.981 329Z" fill="white"/>
<path d="M366.5 146.21C364.582 146.21 363.025 147.911 363.025 150.001C363.025 152.089 364.582 153.79 366.5 153.79C368.416 153.79 369.975 152.089 369.975 150.001C369.975 147.911 368.416 146.21 366.5 146.21ZM366.5 156C363.469 156 361 153.309 361 150.001C361 146.693 363.469 144 366.5 144C369.532 144 372 146.693 372 150.001C372 153.309 369.532 156 366.5 156Z" fill="#2EFF7B"/>
<path d="M250.001 337C249.694 337 249.386 336.85 249.192 336.563C248.866 336.09 248.968 335.431 249.416 335.088L258.336 328.268L249.386 320.89C248.95 320.531 248.872 319.865 249.212 319.407C249.554 318.947 250.181 318.864 250.615 319.223L260.614 327.465C260.862 327.671 261.006 327.985 261 328.317C260.994 328.65 260.842 328.959 260.586 329.155L250.587 336.8C250.409 336.935 250.203 337 250.001 337" fill="white"/>
<path d="M144.5 206C146.433 206 148 207.567 148 209.5C148 211.433 146.433 213 144.5 213C142.567 213 141 211.433 141 209.5C141 207.567 142.567 206 144.5 206Z" fill="white"/>
<path d="M325 156C326.657 156 328 157.567 328 159.499C328 161.433 326.657 163 325 163C323.343 163 322 161.433 322 159.499C322 157.567 323.343 156 325 156Z" fill="white"/>
<path d="M197 343C198.657 343 200 344.567 200 346.499C200 348.433 198.657 350 197 350C195.343 350 194 348.433 194 346.499C194 344.567 195.343 343 197 343Z" fill="white"/>
<path d="M367.001 192C368.657 192 370 193.791 370 196.001C370 198.209 368.657 200 367.001 200C365.343 200 364 198.209 364 196.001C364 193.791 365.343 192 367.001 192Z" fill="white"/>
<path d="M79.5 206C81.4332 206 83 207.567 83 209.5C83 211.433 81.4332 213 79.5 213C77.5668 213 76 211.433 76 209.5C76 207.567 77.5668 206 79.5 206Z" fill="white"/>
<path d="M177 106C178.657 106 180 107.567 180 109.5C180 111.433 178.657 113 177 113C175.343 113 174 111.433 174 109.5C174 107.567 175.343 106 177 106Z" fill="white"/>
<path d="M294 360C295.657 360 297 361.567 297 363.501C297 365.433 295.657 367 294 367C292.343 367 291 365.433 291 363.501C291 361.567 292.343 360 294 360Z" fill="white"/>
<path d="M238.024 369C237.829 369 237.636 368.936 237.466 368.803L231.417 364.013C230.976 363.663 230.867 362.975 231.175 362.473C231.485 361.968 232.096 361.853 232.535 362.198L238.582 366.986C239.025 367.336 239.132 368.026 238.824 368.528C238.633 368.836 238.331 369 238.024 369" fill="white"/>
<path d="M228 358C227.448 358 227 357.534 227 356.961V350.039C227 349.464 227.448 349 228 349C228.554 349 229 349.464 229 350.039V356.961C229 357.534 228.554 358 228 358Z" fill="white"/>
<path d="M217.977 369C217.669 369 217.366 368.836 217.175 368.528C216.867 368.026 216.976 367.336 217.417 366.986L223.466 362.198C223.905 361.853 224.514 361.968 224.824 362.473C225.132 362.975 225.025 363.663 224.582 364.013L218.535 368.803C218.365 368.936 218.17 369 217.977 369" fill="white"/>
<path d="M135.079 87.1898H124.955C124.396 87.1898 123.942 86.7015 123.942 86.0949C123.942 85.4905 124.396 85 124.955 85H135.079C135.64 85 136.092 85.4905 136.092 86.0949C136.092 86.7015 135.64 87.1898 135.079 87.1898ZM155.328 87.1898H145.204C144.645 87.1898 144.191 86.7015 144.191 86.0949C144.191 85.4905 144.645 85 145.204 85H155.328C155.889 85 156.341 85.4905 156.341 86.0949C156.341 86.7015 155.889 87.1898 155.328 87.1898ZM175.577 87.1898H165.453C164.894 87.1898 164.44 86.7015 164.44 86.0949C164.44 85.4905 164.894 85 165.453 85H175.577C176.138 85 176.59 85.4905 176.59 86.0949C176.59 86.7015 176.138 87.1898 175.577 87.1898ZM195.827 87.1898H185.702C185.143 87.1898 184.69 86.7015 184.69 86.0949C184.69 85.4905 185.143 85 185.702 85H195.827C196.387 85 196.839 85.4905 196.839 86.0949C196.839 86.7015 196.387 87.1898 195.827 87.1898ZM205.988 98.1017C205.427 98.1017 204.975 97.6112 204.975 97.0068V86.2964C204.963 86.2329 204.957 86.165 204.957 86.0949C204.957 85.4905 205.392 85 205.951 85H205.988C206.546 85 207 85.4905 207 86.0949V97.0068C207 97.6112 206.546 98.1017 205.988 98.1017V98.1017ZM122.012 105.906C121.454 105.906 121 105.418 121 104.811V93.8622C121 93.2578 121.454 92.7673 122.012 92.7673C122.571 92.7673 123.025 93.2578 123.025 93.8622V104.811C123.025 105.418 122.571 105.906 122.012 105.906ZM205.988 120C205.427 120 204.975 119.509 204.975 118.905V107.956C204.975 107.349 205.427 106.861 205.988 106.861C206.546 106.861 207 107.349 207 107.956V118.905C207 119.509 206.546 120 205.988 120Z" fill="#2EFF7B"/>
<path d="M341.98 156.735C341.418 156.735 340.961 156.243 340.961 155.636V153.099C340.961 152.492 341.418 152 341.98 152C342.543 152 343 152.492 343 153.099V155.636C343 156.243 342.543 156.735 341.98 156.735ZM341.98 178.707C341.418 178.707 340.961 178.215 340.961 177.608V166.622C340.961 166.014 341.418 165.524 341.98 165.524C342.543 165.524 343 166.014 343 166.622V177.608C343 178.215 342.543 178.707 341.98 178.707ZM341.98 200.679C341.418 200.679 340.961 200.186 340.961 199.58V188.594C340.961 187.985 341.418 187.496 341.98 187.496C342.543 187.496 343 187.985 343 188.594V199.58C343 200.186 342.543 200.679 341.98 200.679ZM341.98 222.65C341.418 222.65 340.961 222.158 340.961 221.552V210.566C340.961 209.957 341.418 209.467 341.98 209.467C342.543 209.467 343 209.957 343 210.566V221.552C343 222.158 342.543 222.65 341.98 222.65ZM318.216 230H308.02C307.455 230 307 229.51 307 228.901C307 228.295 307.455 227.803 308.02 227.803H318.216C318.778 227.803 319.235 228.295 319.235 228.901C319.235 229.51 318.778 230 318.216 230ZM338.608 230H328.412C327.847 230 327.392 229.51 327.392 228.901C327.392 228.295 327.847 227.803 328.412 227.803H338.608C339.17 227.803 339.627 228.295 339.627 228.901C339.627 229.51 339.17 230 338.608 230Z" fill="#2EFF7B"/>
<path d="M143.466 264.124H133.212C132.646 264.124 132.186 263.65 132.186 263.062C132.186 262.476 132.646 262 133.212 262H143.466C144.034 262 144.491 262.476 144.491 263.062C144.491 263.65 144.034 264.124 143.466 264.124ZM163.975 264.124H153.72C153.154 264.124 152.695 263.65 152.695 263.062C152.695 262.476 153.154 262 153.72 262H163.975C164.543 262 165 262.476 165 263.062C165 263.65 164.543 264.124 163.975 264.124ZM116.025 267.563C115.457 267.563 115 267.089 115 266.501V263.062C115 262.476 115.457 262 116.025 262H122.957C123.525 262 123.983 262.476 123.983 263.062C123.983 263.65 123.525 264.124 122.957 264.124H117.051V266.501C117.051 267.089 116.591 267.563 116.025 267.563ZM116.025 282C115.457 282 115 281.526 115 280.938V277.121C115 276.535 115.457 276.059 116.025 276.059C116.591 276.059 117.051 276.535 117.051 277.121V280.938C117.051 281.526 116.591 282 116.025 282Z" fill="#2EFF7B"/>
</svg>
