<svg width="410" height="512" viewBox="0 0 410 512" fill="none" xmlns="http://www.w3.org/2000/svg">
<path d="M256.3 0H64.2C28.9 0 0.199997 28.7 0.199997 64V448C0.199997 483.3 28.9 512 64.2 512H345.8C381.1 512 409.8 483.3 409.8 448V153.6L256.3 0ZM153.8 76.8H128.2V102.4H153.8V128H128.2V153.6H153.8V179.2H128.2V204.8H153.8V230.4H128.2V256H153.8V281.6H128.2V307.2H153.8V332.8H128.2V358.4H153.8V384H128.2V409.6H153.8V435.2H128.2V460.8H153.8V486.4H128.2V460.8H102.6V435.2H128.2V409.6H102.6V384H128.2V358.4H102.6V332.8H128.2V307.2H102.6V281.6H128.2V256H102.6V230.4H128.2V204.8H102.6V179.2H128.2V153.6H102.6V128H128.2V102.4H102.6V76.8H128.2V51.2H102.6V25.6H128.2V51.2H153.8V76.8ZM307.4 166.4C272.1 166.4 243.4 137.7 243.4 102.4V25.6L384.2 166.4H307.4Z" fill="#FBB563"/>
</svg>
